<svg width="15" height="15" viewBox="0 0 15 15" fill="none" xmlns="http://www.w3.org/2000/svg">
<path d="M4.34985 10.1743C4.34985 10.5885 4.68564 10.9243 5.09985 10.9243C5.51407 10.9243 5.84985 10.5885 5.84985 10.1743H4.34985ZM10.0999 6.42432L10.7239 6.84034C10.9537 6.4957 10.8605 6.03004 10.5159 5.80028L10.0999 6.42432ZM8.22582 7.88329C7.99605 8.22794 8.08918 8.69359 8.43383 8.92335C8.77847 9.15312 9.24413 9.05999 9.47389 8.71534L8.22582 7.88329ZM8.64088 4.55028C8.29623 4.32051 7.83058 4.41364 7.60082 4.75829C7.37105 5.10294 7.46418 5.56859 7.80883 5.79835L8.64088 4.55028ZM5.84985 10.1743C5.84985 9.21525 6.31374 8.49562 7.07838 7.98585C7.86525 7.46127 8.96111 7.17432 10.0999 7.17432V5.67432C8.7386 5.67432 7.33446 6.01236 6.24633 6.73778C5.13597 7.47802 4.34985 8.63339 4.34985 10.1743H5.84985ZM9.47582 6.00829L8.22582 7.88329L9.47389 8.71534L10.7239 6.84034L9.47582 6.00829ZM10.5159 5.80028L8.64088 4.55028L7.80883 5.79835L9.68383 7.04835L10.5159 5.80028ZM3.84985 2.17432H11.3499V0.674316H3.84985V2.17432ZM13.0999 3.92432V11.4243H14.5999V3.92432H13.0999ZM11.3499 13.1743H3.84985V14.6743H11.3499V13.1743ZM2.09985 11.4243V3.92432H0.599854V11.4243H2.09985ZM3.84985 13.1743C2.88336 13.1743 2.09985 12.3908 2.09985 11.4243H0.599854C0.599854 13.2192 2.05493 14.6743 3.84985 14.6743V13.1743ZM13.0999 11.4243C13.0999 12.3908 12.3164 13.1743 11.3499 13.1743V14.6743C13.1448 14.6743 14.5999 13.2192 14.5999 11.4243H13.0999ZM11.3499 2.17432C12.3164 2.17432 13.0999 2.95782 13.0999 3.92432H14.5999C14.5999 2.12939 13.1448 0.674316 11.3499 0.674316V2.17432ZM3.84985 0.674316C2.05493 0.674316 0.599854 2.12939 0.599854 3.92432H2.09985C2.09985 2.95782 2.88336 2.17432 3.84985 2.17432V0.674316Z" fill="#28303F"/>
</svg>
