<svg width="14" height="14" viewBox="0 0 14 14" fill="none" xmlns="http://www.w3.org/2000/svg">
<path d="M7.87406 1C7.87406 0.585786 7.53827 0.25 7.12406 0.25C6.70984 0.25 6.37406 0.585786 6.37406 1H7.87406ZM6.37406 13C6.37406 13.4142 6.70984 13.75 7.12406 13.75C7.53827 13.75 7.87406 13.4142 7.87406 13H6.37406ZM12.6861 7.75C13.1003 7.75 13.4361 7.41421 13.4361 7C13.4361 6.58579 13.1003 6.25 12.6861 6.25V7.75ZM1.56201 6.25C1.1478 6.25 0.812012 6.58579 0.812012 7C0.812012 7.41421 1.1478 7.75 1.56201 7.75L1.56201 6.25ZM6.37406 1V13H7.87406V1H6.37406ZM12.6861 6.25L1.56201 6.25L1.56201 7.75L12.6861 7.75V6.25Z" fill="#115ABE"/>
</svg>
