<svg width="45" height="45" viewBox="0 0 45 45" fill="none" xmlns="http://www.w3.org/2000/svg">
<path d="M29.25 30C29.25 30.4142 29.5858 30.75 30 30.75C30.4142 30.75 30.75 30.4142 30.75 30H29.25ZM15 18.75L14.584 18.126C14.2393 18.3557 14.1462 18.8214 14.376 19.166L15 18.75ZM18.126 24.791C18.3557 25.1357 18.8214 25.2288 19.166 24.999C19.5107 24.7693 19.6038 24.3036 19.374 23.959L18.126 24.791ZM21.041 15.624C21.3857 15.3943 21.4788 14.9286 21.249 14.584C21.0193 14.2393 20.5536 14.1462 20.209 14.376L21.041 15.624ZM30.75 30C30.75 25.9591 28.7139 22.9287 25.7285 20.9385C22.7654 18.963 18.8613 18 15 18V19.5C18.6387 19.5 22.2346 20.412 24.8965 22.1865C27.5361 23.9463 29.25 26.5409 29.25 30H30.75ZM14.376 19.166L18.126 24.791L19.374 23.959L15.624 18.334L14.376 19.166ZM15.416 19.374L21.041 15.624L20.209 14.376L14.584 18.126L15.416 19.374ZM11.25 4.5H33.75V3H11.25V4.5ZM40.5 11.25V33.75H42V11.25H40.5ZM33.75 40.5H11.25V42H33.75V40.5ZM4.5 33.75V11.25H3V33.75H4.5ZM11.25 40.5C7.52208 40.5 4.5 37.4779 4.5 33.75H3C3 38.3064 6.69365 42 11.25 42V40.5ZM40.5 33.75C40.5 37.4779 37.4779 40.5 33.75 40.5V42C38.3064 42 42 38.3064 42 33.75H40.5ZM33.75 4.5C37.4779 4.5 40.5 7.52208 40.5 11.25H42C42 6.69365 38.3064 3 33.75 3V4.5ZM11.25 3C6.69365 3 3 6.69365 3 11.25H4.5C4.5 7.52208 7.52208 4.5 11.25 4.5V3Z" fill="#28303F"/>
</svg>
