<svg width="22" height="21" viewBox="0 0 22 21" fill="none" xmlns="http://www.w3.org/2000/svg">
<path fill-rule="evenodd" clip-rule="evenodd" d="M1.72867 8.84204H5.5001V19.8947H1.72867C1.38152 19.8947 1.1001 19.514 1.1001 19.0445V9.69224C1.1001 9.22269 1.38152 8.84204 1.72867 8.84204Z" fill="#115AD2" stroke="white" stroke-linecap="round" stroke-linejoin="round"/>
<path fill-rule="evenodd" clip-rule="evenodd" d="M5.5 9.67098L9.12964 2.60492C9.66585 1.56093 10.9428 1.15143 11.9818 1.69025C12.1759 1.79092 12.3534 1.92116 12.5078 2.07636C13.1267 2.6982 13.4744 3.54158 13.4744 4.42098V7.73677H19.2503C19.7236 7.73677 20.1741 7.94097 20.4873 8.29747C20.8005 8.65396 20.9463 9.12844 20.8876 9.6003L19.6501 18.4424C19.5468 19.2721 18.8449 19.8947 18.0128 19.8947H5.5" fill="#115AD2"/>
<path d="M5.5 9.67098L9.12964 2.60492C9.66585 1.56093 10.9428 1.15143 11.9818 1.69025C12.1759 1.79092 12.3534 1.92116 12.5078 2.07636C13.1267 2.6982 13.4744 3.54158 13.4744 4.42098V7.73677H19.2503C19.7236 7.73677 20.1741 7.94097 20.4873 8.29747C20.8005 8.65396 20.9463 9.12844 20.8876 9.6003L19.6501 18.4424C19.5468 19.2721 18.8449 19.8947 18.0128 19.8947H5.5" stroke="white" stroke-linecap="round" stroke-linejoin="round"/>
</svg>
