<svg width="21" height="19" viewBox="0 0 21 19" fill="none" xmlns="http://www.w3.org/2000/svg">
<path d="M1.31255 18.0312C1.24507 18.0407 1.1766 18.0407 1.10911 18.0312C0.972059 17.9867 0.853459 17.8984 0.771622 17.7798C0.689784 17.6612 0.649259 17.5189 0.656302 17.375V16.7187C0.656562 13.7533 1.71375 10.8849 3.63811 8.62863C5.56247 6.37232 8.22801 4.87574 11.1563 4.4075V1.625C11.1563 1.50313 11.1902 1.38366 11.2543 1.27999C11.3184 1.17632 11.4101 1.09254 11.5191 1.03803C11.6281 0.983529 11.7501 0.960457 11.8715 0.971402C11.9929 0.982347 12.1088 1.02688 12.2063 1.1L20.0813 7.00625C20.1628 7.06738 20.229 7.14664 20.2745 7.23777C20.3201 7.32889 20.3438 7.42937 20.3438 7.53125C20.3438 7.63313 20.3201 7.73361 20.2745 7.82473C20.229 7.91586 20.1628 7.99512 20.0813 8.05625L12.2063 13.9625C12.1088 14.0356 11.9929 14.0802 11.8715 14.0911C11.7501 14.102 11.6281 14.079 11.5191 14.0245C11.4101 13.97 11.3184 13.8862 11.2543 13.7825C11.1902 13.6788 11.1563 13.5594 11.1563 13.4375V10.9766C7.9785 11.4952 5.13282 13.2446 3.23536 15.8459L1.84411 17.7622C1.78302 17.8458 1.70301 17.9138 1.61063 17.9605C1.51824 18.0073 1.4161 18.0315 1.31255 18.0312ZM12.4688 2.9375V4.985C12.4698 5.14723 12.4106 5.30408 12.3028 5.42527C12.1949 5.54646 12.046 5.62341 11.8847 5.64125C9.41023 5.91121 7.09709 7.00098 5.31334 8.73716C3.5296 10.4733 2.37772 12.7562 2.04099 15.2225L2.14599 15.0847C3.26901 13.5427 4.70449 12.2548 6.35879 11.3049C8.0131 10.3551 9.84906 9.76466 11.7469 9.57219C11.8384 9.56367 11.9307 9.57446 12.0177 9.60385C12.1047 9.63324 12.1846 9.68058 12.2522 9.74281C12.3202 9.80417 12.3746 9.87907 12.4119 9.96271C12.4492 10.0463 12.4686 10.1369 12.4688 10.2284V12.125L18.5916 7.53125L12.4688 2.9375Z" fill="#C4C4C4"/>
</svg>
