<svg width="56" height="52" viewBox="0 0 56 52" fill="none" xmlns="http://www.w3.org/2000/svg">
<path fill-rule="evenodd" clip-rule="evenodd" d="M17.9375 2.57284L14 8.66667H11.2C5.01441 8.66667 0 13.8403 0 20.2222V40.4444C0 46.8264 5.01441 52 11.2 52H44.8C50.9856 52 56 46.8264 56 40.4444V20.2222C56 13.8403 50.9856 8.66667 44.8 8.66667H42L38.0625 2.57284C37.0238 0.965473 35.2753 0 33.403 0H22.597C20.7247 0 18.9762 0.965472 17.9375 2.57284ZM36.4 30.3333C36.4 35.1198 32.6392 39 28 39C23.3608 39 19.6 35.1198 19.6 30.3333C19.6 25.5469 23.3608 21.6667 28 21.6667C32.6392 21.6667 36.4 25.5469 36.4 30.3333ZM28 11.5556C29.5464 11.5556 30.8 10.2622 30.8 8.66667C30.8 7.07118 29.5464 5.77778 28 5.77778C26.4536 5.77778 25.2 7.07118 25.2 8.66667C25.2 10.2622 26.4536 11.5556 28 11.5556Z" fill="#B4B4B4"/>
</svg>
