<svg width="15" height="14" viewBox="0 0 15 14" fill="none" xmlns="http://www.w3.org/2000/svg">
<path d="M6.97485 1.79932H8.22485V0.299316H6.97485V1.79932ZM2.09985 9.79932V6.67432H0.599854V9.79932H2.09985ZM8.22485 11.5493H3.84985V13.0493H8.22485V11.5493ZM0.599854 9.79932C0.599854 11.5942 2.05493 13.0493 3.84985 13.0493V11.5493C2.88336 11.5493 2.09985 10.7658 2.09985 9.79932H0.599854ZM13.0999 6.67432C13.0999 9.3667 10.9172 11.5493 8.22485 11.5493V13.0493C11.7457 13.0493 14.5999 10.1951 14.5999 6.67432H13.0999ZM8.22485 1.79932C10.9172 1.79932 13.0999 3.98193 13.0999 6.67432H14.5999C14.5999 3.1535 11.7457 0.299316 8.22485 0.299316V1.79932ZM6.97485 0.299316C3.45404 0.299316 0.599854 3.1535 0.599854 6.67432H2.09985C2.09985 3.98193 4.28247 1.79932 6.97485 1.79932V0.299316Z" fill="#28303F"/>
</svg>
