<svg width="15" height="15" viewBox="0 0 15 15" fill="none" xmlns="http://www.w3.org/2000/svg">
<path d="M12.4483 11.4263L13.1775 11.6015L12.4483 11.4263ZM13.4616 7.2081L12.7323 7.03292H12.7323L13.4616 7.2081ZM8.84985 5.59168L8.21832 5.18713C8.07045 5.41797 8.0603 5.71109 8.19186 5.9516C8.32342 6.19211 8.57572 6.34168 8.84985 6.34168V5.59168ZM9.73038 4.21711L10.3619 4.62166L10.3619 4.62166L9.73038 4.21711ZM7.59985 1.68896V0.938965C7.32614 0.938965 7.07417 1.08807 6.94243 1.328L7.59985 1.68896ZM5.1822 6.09215L5.83962 6.45312L5.83962 6.45312L5.1822 6.09215ZM5.37817 12.2893L4.95063 12.9055L4.95063 12.9055L5.37817 12.2893ZM6.34504 12.9601L6.77258 12.3439L6.77258 12.3439L6.34504 12.9601ZM2.59985 5.69123H3.84985V4.19123H2.59985V5.69123ZM4.34985 6.24213V12.0962H5.84985V6.24213H4.34985ZM3.84985 12.6471H2.59985V14.1471H3.84985V12.6471ZM2.09985 12.0962V6.24213H0.599854V12.0962H2.09985ZM2.59985 12.6471C2.35165 12.6471 2.09985 12.429 2.09985 12.0962H0.599854C0.599854 13.2004 1.46735 14.1471 2.59985 14.1471V12.6471ZM4.34985 12.0962C4.34985 12.429 4.09806 12.6471 3.84985 12.6471V14.1471C4.98236 14.1471 5.84985 13.2004 5.84985 12.0962H4.34985ZM3.84985 5.69123C4.09806 5.69123 4.34985 5.90938 4.34985 6.24213H5.84985C5.84985 5.13795 4.98236 4.19123 3.84985 4.19123V5.69123ZM2.59985 4.19123C1.46735 4.19123 0.599854 5.13795 0.599854 6.24213H2.09985C2.09985 5.90938 2.35165 5.69123 2.59985 5.69123V4.19123ZM7.73179 14.1471H10.0229V12.6471H7.73179V14.1471ZM13.1775 11.6015L14.1908 7.38328L12.7323 7.03292L11.719 11.2512L13.1775 11.6015ZM12.2489 4.84168H8.84985V6.34168H12.2489V4.84168ZM9.48139 5.99623L10.3619 4.62166L9.09884 3.81256L8.21832 5.18713L9.48139 5.99623ZM8.4303 0.938965H7.59985V2.43896H8.4303V0.938965ZM6.94243 1.328L4.52478 5.73119L5.83962 6.45312L8.25727 2.04993L6.94243 1.328ZM4.34985 6.41487V11.7481H5.84985V6.41487H4.34985ZM4.95063 12.9055L5.91751 13.5763L6.77258 12.3439L5.8057 11.6731L4.95063 12.9055ZM4.34985 11.7481C4.34985 12.2033 4.5682 12.6402 4.95063 12.9055L5.8057 11.6731C5.84039 11.6972 5.84985 11.7278 5.84985 11.7481H4.34985ZM14.1908 7.38328C14.4923 6.12842 13.5854 4.84168 12.2489 4.84168V6.34168C12.5388 6.34168 12.8253 6.64566 12.7323 7.03292L14.1908 7.38328ZM10.0229 14.1471C11.5355 14.1471 12.8228 13.0784 13.1775 11.6015L11.719 11.2512C11.5173 12.0908 10.8046 12.6471 10.0229 12.6471V14.1471ZM7.73179 12.6471C7.39311 12.6471 7.0594 12.5429 6.77258 12.3439L5.91751 13.5763C6.45202 13.9472 7.08335 14.1471 7.73179 14.1471V12.6471ZM10.3619 4.62166C11.345 3.08697 10.324 0.938965 8.4303 0.938965V2.43896C9.03255 2.43896 9.50024 3.18594 9.09884 3.81256L10.3619 4.62166ZM4.52478 5.73118C4.40947 5.94119 4.34985 6.17674 4.34985 6.41487H5.84985C5.84985 6.4266 5.847 6.43968 5.83962 6.45312L4.52478 5.73118Z" fill="#28303F"/>
</svg>
