<svg width="13" height="17" viewBox="0 0 13 17" fill="none" xmlns="http://www.w3.org/2000/svg">
<path d="M1.55797 0.5H11.0522C11.272 0.5 11.5246 0.628034 11.743 0.941032C11.9601 1.25194 12.1101 1.7073 12.1101 2.23186V11.2816C12.1101 11.8061 11.9601 12.2615 11.743 12.5724C11.5245 12.8854 11.272 13.0135 11.0522 13.0135H7.08608C6.79566 13.0135 6.58648 13.1743 6.46034 13.3347C6.43869 13.3598 6.42129 13.3831 6.40939 13.3997L3.9596 16.2894C3.95959 16.2895 3.95957 16.2895 3.95955 16.2895C3.83235 16.4389 3.72364 16.469 3.65287 16.469C3.59767 16.469 3.53519 16.4542 3.46393 16.4083C3.2583 16.2645 3.0627 15.9112 3.0627 15.4132V13.9971C3.0627 13.7741 3.00089 13.5503 2.87405 13.3686C2.74795 13.1879 2.5261 13.0135 2.22507 13.0135H1.55797C1.33815 13.0135 1.0856 12.8854 0.867105 12.5724C0.65007 12.2615 0.5 11.8061 0.5 11.2816V2.23186C0.5 1.7073 0.650071 1.25194 0.867104 0.941032C1.0856 0.628034 1.33814 0.5 1.55797 0.5Z" stroke="#B0B0B0"/>
</svg>
