<svg width="18" height="16" viewBox="0 0 18 16" fill="none" xmlns="http://www.w3.org/2000/svg">
<path d="M6.93031 8.35901C8.96874 8.35901 10.6265 6.76027 10.6265 4.79438C10.6265 2.82848 8.96874 1.22974 6.93031 1.22974C4.89187 1.22974 3.23414 2.82848 3.23414 4.79438C3.23414 6.76027 4.89187 8.35901 6.93031 8.35901ZM8.31637 9.25017H5.54425C2.48659 9.25017 0 11.6483 0 14.5971V15.4883H0.924041H1.84808H12.0125H12.9366H13.8606V14.5971C13.8606 11.6483 11.374 9.25017 8.31637 9.25017Z" fill="#494949"/>
<path d="M13.495 7.51062C14.0531 6.59362 14.3007 5.52512 14.1889 4.44503C14.0235 2.8552 13.1032 1.44984 11.5988 0.488281L10.5778 1.97295C11.6118 2.63419 12.241 3.57615 12.3501 4.62326C12.4517 5.60799 12.0914 6.57847 11.3595 7.28426L10.2581 8.34653L11.7532 8.76983C15.6637 9.87487 15.709 13.6676 15.709 13.706H17.5571C17.5571 12.1117 16.6737 8.99618 13.495 7.51062Z" fill="#494949"/>
</svg>
