<?xml version="1.0" encoding="utf-8"?>
<!-- Generator: Adobe Illustrator 26.3.1, SVG Export Plug-In . SVG Version: 6.00 Build 0)  -->
<svg version="1.0" id="Object" xmlns="http://www.w3.org/2000/svg" xmlns:xlink="http://www.w3.org/1999/xlink" x="0px" y="0px"
	 viewBox="0 0 1122 1122" style="enable-background:new 0 0 1122 1122;" xml:space="preserve">
<style type="text/css">
	.st0{fill:#0061A7;}
	.st1{fill:#F4F7FB;}
</style>
<g>
	<path class="st0" d="M40.52,695.26L21.27,711.2l280.09,34.73c40.69,16.15,83.13,27.69,126.88,34.74
		c14.69-142.01,166.06-254.03,350.17-254.03c74.6,0,143.79,18.44,200.74,49.77c35.6-53.54,55.83-114.22,55.83-178.55
		c0-215.65-226.08-391.1-504-391.1c-277.92,0-504.03,175.45-504.03,391.1c0,77.42,29.12,151.99,84.28,216.32l-0.44,0.34l5.39,5.7
		C109.98,632.76,73.52,667.87,40.52,695.26z M195.4,224.33h657.01v35.59H195.4V224.33z M195.4,356.35h657.01v35.6H195.4V356.35z
		 M195.4,488.38h347.85v35.59H195.4V488.38z"/>
	<path class="st0" d="M455.8,803.37c0,136.73,144.76,247.97,322.61,247.97c39.33,0,78-5.53,114.95-16.41l7.85-2.3l90.46,83.37
		V989.12l6.02-4.31C1063.35,937.89,1101,871.75,1101,803.37c0-136.72-144.76-247.96-322.59-247.96
		C600.56,555.41,455.8,666.65,455.8,803.37z"/>
	<rect x="195.4" y="224.33" class="st1" width="657.01" height="35.59"/>
	<rect x="195.4" y="356.35" class="st1" width="657.01" height="35.6"/>
	<rect x="195.4" y="488.38" class="st1" width="347.85" height="35.59"/>
</g>
</svg>
