<svg width="20" height="14" viewBox="0 0 20 14" fill="none" xmlns="http://www.w3.org/2000/svg">
<path fill-rule="evenodd" clip-rule="evenodd" d="M4 13.75C4.05004 13.75 4.09894 13.7451 4.14624 13.7358C4.85087 13.6985 5.54378 13.3922 6.05538 12.8166L7.56056 11.1233C7.83575 10.8137 7.80787 10.3396 7.49828 10.0645C7.18869 9.78926 6.71464 9.81715 6.43945 10.1267L4.93427 11.8201C4.8774 11.884 4.8156 11.9407 4.75 11.99V1C4.75 0.585787 4.41421 0.25 4 0.25C3.58579 0.25 3.25 0.585787 3.25 1V11.99C3.18441 11.9407 3.12261 11.884 3.06575 11.8201L1.56056 10.1267C1.28538 9.81715 0.811322 9.78926 0.501735 10.0645C0.192148 10.3396 0.164263 10.8137 0.439451 11.1233L1.94463 12.8166C2.45623 13.3922 3.14913 13.6985 3.85376 13.7357C3.90106 13.7451 3.94996 13.75 4 13.75ZM9.25 1C9.25 0.585786 9.58579 0.25 10 0.25H13C13.4142 0.25 13.75 0.585786 13.75 1C13.75 1.41421 13.4142 1.75 13 1.75H10C9.58579 1.75 9.25 1.41421 9.25 1ZM10 7.75C9.58579 7.75 9.25 7.41421 9.25 7C9.25 6.58579 9.58579 6.25 10 6.25H16C16.4142 6.25 16.75 6.58579 16.75 7C16.75 7.41421 16.4142 7.75 16 7.75H10ZM10 13.75C9.58579 13.75 9.25 13.4142 9.25 13C9.25 12.5858 9.58579 12.25 10 12.25H19C19.4142 12.25 19.75 12.5858 19.75 13C19.75 13.4142 19.4142 13.75 19 13.75H10Z" fill="#28303F"/>
</svg>
